<svg width="155" height="150" viewBox="0 0 155 150" fill="none" xmlns="http://www.w3.org/2000/svg">
<g filter="url(#filter0_d)">
<ellipse cx="73" cy="72" rx="73" ry="71" fill="#A7C0E5"/>
</g>
<path d="M100.964 81.9655L101.279 60.9027C101.43 50.724 94.4595 42.3669 85.7087 42.2363C76.9579 42.1058 69.7408 50.2514 69.589 60.43L69.2749 81.4929C69.1231 91.6715 76.094 100.029 84.8448 100.159C93.5956 100.29 100.813 92.1441 100.964 81.9655Z" stroke="white" stroke-width="2" stroke-linecap="round" stroke-linejoin="round"/>
<path d="M97.3347 61.1937C97.3347 67.8585 92.1494 73.1937 85.8347 73.1937C79.52 73.1937 74.3347 67.8585 74.3347 61.1937C74.3347 54.529 79.52 49.1937 85.8347 49.1937C92.1494 49.1937 97.3347 54.529 97.3347 61.1937Z" fill="#8DADDB" stroke="#8DADDB" stroke-width="2"/>
<path d="M85.2021 57.5286L82.0015 60.5795L82.0015 63.8723C82.0015 63.9575 82.0308 64.0393 82.0829 64.0996C82.135 64.1599 82.2056 64.1937 82.2793 64.1937L84.2246 64.1879C84.298 64.1875 84.3683 64.1534 84.4201 64.0932C84.4719 64.0329 84.501 63.9514 84.501 63.8664L84.501 61.9435C84.501 61.8582 84.5302 61.7765 84.5823 61.7162C84.6344 61.6559 84.7051 61.622 84.7787 61.622L85.8898 61.622C85.9634 61.622 86.0341 61.6559 86.0862 61.7162C86.1382 61.7765 86.1675 61.8582 86.1675 61.9435L86.1675 63.865C86.1674 63.9073 86.1745 63.9492 86.1884 63.9884C86.2023 64.0275 86.2228 64.063 86.2486 64.093C86.2744 64.1229 86.305 64.1467 86.3388 64.1629C86.3725 64.1791 86.4087 64.1875 86.4453 64.1875L88.3899 64.1937C88.4636 64.1937 88.5342 64.1599 88.5863 64.0996C88.6384 64.0393 88.6677 63.9575 88.6677 63.8723L88.6677 60.5773L85.4677 57.5286C85.4301 57.4935 85.3833 57.4743 85.3349 57.4743C85.2866 57.4743 85.2398 57.4935 85.2021 57.5286ZM90.2578 59.6022L88.8065 58.2177L88.8065 55.4348C88.8065 55.3709 88.7846 55.3096 88.7455 55.2643C88.7065 55.2191 88.6535 55.1937 88.5982 55.1937L87.6261 55.1937C87.5708 55.1937 87.5178 55.2191 87.4788 55.2643C87.4397 55.3096 87.4178 55.3709 87.4178 55.4348L87.4178 56.8937L85.8635 55.4137C85.7144 55.2717 85.5272 55.194 85.3341 55.194C85.1409 55.194 84.9538 55.2717 84.8046 55.4137L80.4103 59.6022C80.3892 59.6224 80.3718 59.6472 80.359 59.6752C80.3461 59.7032 80.3382 59.7338 80.3356 59.7653C80.3331 59.7969 80.3359 59.8287 80.3439 59.8589C80.352 59.8892 80.3651 59.9174 80.3825 59.9418L80.8252 60.5646C80.8426 60.5891 80.864 60.6094 80.8882 60.6243C80.9124 60.6392 80.9389 60.6484 80.9661 60.6514C80.9934 60.6545 81.0209 60.6513 81.0471 60.642C81.0733 60.6327 81.0976 60.6175 81.1188 60.5973L85.2021 56.7048C85.2398 56.6697 85.2866 56.6506 85.3349 56.6506C85.3833 56.6506 85.4301 56.6697 85.4677 56.7048L89.5513 60.5973C89.5724 60.6175 89.5967 60.6327 89.6228 60.642C89.649 60.6513 89.6765 60.6546 89.7037 60.6516C89.731 60.6486 89.7574 60.6395 89.7816 60.6246C89.8058 60.6098 89.8272 60.5896 89.8447 60.5652L90.2873 59.9424C90.3048 59.9178 90.3178 59.8895 90.3258 59.8591C90.3337 59.8287 90.3364 59.7968 90.3337 59.7652C90.3309 59.7336 90.3228 59.7029 90.3098 59.6749C90.2968 59.647 90.2791 59.6223 90.2578 59.6022Z" fill="white"/>
<path d="M55.76 99.4C51.6533 99.4 48.56 98.24 46.48 95.92C44.4267 93.6 43.4 90.1733 43.4 85.64C43.4 76.52 47.52 71.96 55.76 71.96C57.2267 71.96 58.6667 72.1067 60.08 72.4C61.4933 72.6933 62.8533 73.1467 64.16 73.76L64.16 76.76C62.9067 76.2 61.6 75.72 60.24 75.32C58.88 74.8933 57.4933 74.68 56.08 74.68C52.6933 74.68 50.2133 75.5733 48.64 77.36C47.0667 79.12 46.28 81.88 46.28 85.64C46.28 89.4267 47.0667 92.2133 48.64 94C50.2133 95.76 52.6933 96.64 56.08 96.64C58.2133 96.64 60.2533 96.32 62.2 95.68L62.2 88.08L55.76 88.08L55.76 85.28L65.08 85.28L65.08 97.32C62.2 98.7067 59.0933 99.4 55.76 99.4Z" fill="white"/>
<path d="M48.7488 60.8L48.7488 71L45.8688 71L45.8688 44.32L55.3488 44.32C58.3354 44.32 60.6154 45.0267 62.1888 46.44C63.7888 47.8533 64.5888 49.8933 64.5888 52.56C64.5888 55.2267 63.7888 57.2667 62.1888 58.68C60.6154 60.0933 58.3354 60.8 55.3488 60.8L48.7488 60.8ZM48.7488 58.04L54.9888 58.04C56.4821 58.04 57.6688 57.88 58.5488 57.56C59.4554 57.24 60.1354 56.8133 60.5888 56.28C61.0421 55.72 61.3354 55.12 61.4688 54.48C61.6288 53.84 61.7088 53.2 61.7088 52.56C61.7088 51.92 61.6288 51.28 61.4688 50.64C61.3354 50 61.0421 49.4133 60.5888 48.88C60.1354 48.32 59.4554 47.88 58.5488 47.56C57.6688 47.24 56.4821 47.08 54.9888 47.08L48.7488 47.08L48.7488 58.04Z" fill="white"/>
<path d="M47.664 106L46.668 104.29L46.008 104.29L46.008 106L45.462 106L45.462 101.818L46.812 101.818C47.128 101.818 47.394 101.872 47.61 101.98C47.83 102.088 47.994 102.234 48.102 102.418C48.21 102.602 48.264 102.812 48.264 103.048C48.264 103.336 48.18 103.59 48.012 103.81C47.848 104.03 47.6 104.176 47.268 104.248L48.318 106L47.664 106ZM46.008 103.852L46.812 103.852C47.108 103.852 47.33 103.78 47.478 103.636C47.626 103.488 47.7 103.292 47.7 103.048C47.7 102.8 47.626 102.608 47.478 102.472C47.334 102.336 47.112 102.268 46.812 102.268L46.008 102.268L46.008 103.852ZM51.0084 106.042C50.6204 106.042 50.2664 105.952 49.9464 105.772C49.6264 105.588 49.3724 105.334 49.1844 105.01C49.0004 104.682 48.9084 104.314 48.9084 103.906C48.9084 103.498 49.0004 103.132 49.1844 102.808C49.3724 102.48 49.6264 102.226 49.9464 102.046C50.2664 101.862 50.6204 101.77 51.0084 101.77C51.4004 101.77 51.7564 101.862 52.0764 102.046C52.3964 102.226 52.6484 102.478 52.8324 102.802C53.0164 103.126 53.1084 103.494 53.1084 103.906C53.1084 104.318 53.0164 104.686 52.8324 105.01C52.6484 105.334 52.3964 105.588 52.0764 105.772C51.7564 105.952 51.4004 106.042 51.0084 106.042ZM51.0084 105.568C51.3004 105.568 51.5624 105.5 51.7944 105.364C52.0304 105.228 52.2144 105.034 52.3464 104.782C52.4824 104.53 52.5504 104.238 52.5504 103.906C52.5504 103.57 52.4824 103.278 52.3464 103.03C52.2144 102.778 52.0324 102.584 51.8004 102.448C51.5684 102.312 51.3044 102.244 51.0084 102.244C50.7124 102.244 50.4484 102.312 50.2164 102.448C49.9844 102.584 49.8004 102.778 49.6644 103.03C49.5324 103.278 49.4664 103.57 49.4664 103.906C49.4664 104.238 49.5324 104.53 49.6644 104.782C49.8004 105.034 49.9844 105.228 50.2164 105.364C50.4524 105.5 50.7164 105.568 51.0084 105.568ZM55.7252 106.042C55.3372 106.042 54.9832 105.952 54.6632 105.772C54.3432 105.588 54.0892 105.334 53.9012 105.01C53.7172 104.682 53.6252 104.314 53.6252 103.906C53.6252 103.498 53.7172 103.132 53.9012 102.808C54.0892 102.48 54.3432 102.226 54.6632 102.046C54.9832 101.862 55.3372 101.77 55.7252 101.77C56.1172 101.77 56.4732 101.862 56.7932 102.046C57.1132 102.226 57.3652 102.478 57.5492 102.802C57.7332 103.126 57.8252 103.494 57.8252 103.906C57.8252 104.318 57.7332 104.686 57.5492 105.01C57.3652 105.334 57.1132 105.588 56.7932 105.772C56.4732 105.952 56.1172 106.042 55.7252 106.042ZM55.7252 105.568C56.0172 105.568 56.2792 105.5 56.5112 105.364C56.7472 105.228 56.9312 105.034 57.0632 104.782C57.1992 104.53 57.2672 104.238 57.2672 103.906C57.2672 103.57 57.1992 103.278 57.0632 103.03C56.9312 102.778 56.7492 102.584 56.5172 102.448C56.2852 102.312 56.0212 102.244 55.7252 102.244C55.4292 102.244 55.1652 102.312 54.9332 102.448C54.7012 102.584 54.5172 102.778 54.3812 103.03C54.2492 103.278 54.1832 103.57 54.1832 103.906C54.1832 104.238 54.2492 104.53 54.3812 104.782C54.5172 105.034 54.7012 105.228 54.9332 105.364C55.1692 105.5 55.4332 105.568 55.7252 105.568ZM62.788 101.848L62.788 106L62.242 106L62.242 102.904L60.862 106L60.478 106L59.092 102.898L59.092 106L58.546 106L58.546 101.848L59.134 101.848L60.67 105.28L62.206 101.848L62.788 101.848ZM65.04 106.042C64.764 106.042 64.516 105.994 64.296 105.898C64.08 105.798 63.91 105.662 63.786 105.49C63.662 105.314 63.598 105.112 63.594 104.884L64.176 104.884C64.196 105.08 64.276 105.246 64.416 105.382C64.56 105.514 64.768 105.58 65.04 105.58C65.3 105.58 65.504 105.516 65.652 105.388C65.804 105.256 65.88 105.088 65.88 104.884C65.88 104.724 65.836 104.594 65.748 104.494C65.66 104.394 65.55 104.318 65.418 104.266C65.286 104.214 65.108 104.158 64.884 104.098C64.608 104.026 64.386 103.954 64.218 103.882C64.054 103.81 63.912 103.698 63.792 103.546C63.676 103.39 63.618 103.182 63.618 102.922C63.618 102.694 63.676 102.492 63.792 102.316C63.908 102.14 64.07 102.004 64.278 101.908C64.49 101.812 64.732 101.764 65.004 101.764C65.396 101.764 65.716 101.862 65.964 102.058C66.216 102.254 66.358 102.514 66.39 102.838L65.79 102.838C65.77 102.678 65.686 102.538 65.538 102.418C65.39 102.294 65.194 102.232 64.95 102.232C64.722 102.232 64.536 102.292 64.392 102.412C64.248 102.528 64.176 102.692 64.176 102.904C64.176 103.056 64.218 103.18 64.302 103.276C64.39 103.372 64.496 103.446 64.62 103.498C64.748 103.546 64.926 103.602 65.154 103.666C65.43 103.742 65.652 103.818 65.82 103.894C65.988 103.966 66.132 104.08 66.252 104.236C66.372 104.388 66.432 104.596 66.432 104.86C66.432 105.064 66.378 105.256 66.27 105.436C66.162 105.616 66.002 105.762 65.79 105.874C65.578 105.986 65.328 106.042 65.04 106.042Z" fill="white"/>
<defs>
<filter id="filter0_d" x="0" y="0" width="155" height="150" filterUnits="userSpaceOnUse" color-interpolation-filters="sRGB">
<feFlood flood-opacity="0" result="BackgroundImageFix"/>
<feColorMatrix in="SourceAlpha" type="matrix" values="0 0 0 0 0 0 0 0 0 0 0 0 0 0 0 0 0 0 127 0"/>
<feOffset dx="5" dy="3"/>
<feGaussianBlur stdDeviation="2"/>
<feColorMatrix type="matrix" values="0 0 0 0 0 0 0 0 0 0 0 0 0 0 0 0 0 0 0.25 0"/>
<feBlend mode="normal" in2="BackgroundImageFix" result="effect1_dropShadow"/>
<feBlend mode="normal" in="SourceGraphic" in2="effect1_dropShadow" result="shape"/>
</filter>
</defs>
</svg>
